<svg viewBox="0 0 327 327" xmlns="http://www.w3.org/2000/svg" xml:space="preserve" style="fill-rule:evenodd;clip-rule:evenodd;stroke-linejoin:round;stroke-miterlimit:2"><circle cx="162.2" cy="164.38" r="21.626" style="fill:#fa9c2a" transform="translate(1 -2)"/><path d="M194.615 534.339c57.391 0 103.986 48.65 103.986 108.574 0 59.923-46.595 108.573-103.986 108.573-57.391 0-103.986-48.65-103.986-108.573 0-59.924 46.595-108.574 103.986-108.574Zm.051 20.17c-48.055 0-83.135 40.461-83.135 87.418 0 46.958 35.786 86.898 83.841 86.898 48.055 0 83.346-39.723 83.346-86.68 0-46.957-35.997-87.636-84.052-87.636Z" style="fill:#7c7c7c" transform="matrix(1.51406 0 0 1.4641 -131.829 -776.913)"/><path d="M256.4 69.9c-24.8-24.7-57.6-38.4-92.3-38.7h-.8c-5.7 0-11.5.4-17.2 1.1-11.2 1.3-22.2 4.2-32.6 8.6l-.2.1c-24.4 10-45 26.8-59.7 48.7-15.1 22.5-22.8 48.7-22.4 75.9.6 34.7 14.7 67.3 39.6 91.8 24.9 24.5 57.8 37.9 92.4 37.9h1.9c35.1-.5 67.9-14.6 92.5-39.7 24.6-25.1 38-58.3 37.6-93.5-.2-34.7-14-67.5-38.8-92.2Zm-93.1 73.6c10.9 0 19.8 8.9 19.8 19.8s-8.9 19.8-19.8 19.8-19.8-8.9-19.8-19.8 8.9-19.8 19.8-19.8Zm3.5-102.2c13.7.4 26.9 3.1 39.2 7.7l-36.6 88.3c-.9-.2-1.7-.4-2.6-.5V41.3Zm12.8 100.8c-1.1-.9-2.3-1.7-3.6-2.3l36.5-88.1c12.8 5.7 24.5 13.5 34.5 23l-67.4 67.4Zm-42.8 17.7H41.3c.4-13.8 3.1-26.9 7.6-39.2l88.3 36.6c-.1.8-.3 1.7-.4 2.6Zm0 7c.1 1.1.4 2.2.6 3.3l-88.2 36.5c-4.8-12.4-7.5-25.8-7.9-39.8h95.5Zm10.2 17.7c1.1.9 2.3 1.7 3.6 2.3l-36.5 88.1c-12.8-5.7-24.5-13.5-34.5-23l67.4-67.4Zm10.2 4.8c.9.2 1.7.4 2.6.5v95.5c-13.7-.4-26.9-3.1-39.2-7.7l36.6-88.3Zm9.6.5c1.1-.1 2.2-.4 3.3-.6l36.5 88.2 6.5-2.7-36.5-88.2c1-.6 2.1-1.3 3-2l67.5 67.5c-21.1 19.9-49.2 32.4-80.3 33.3v-95.5Zm23-23h95.5c-.4 13.8-3 26.9-7.6 39.2l-88.3-36.6c.1-.9.3-1.7.4-2.6Zm0-7c-.1-1.1-.4-2.2-.6-3.3l88.2-36.5c4.8 12.4 7.5 25.8 7.9 39.8h-95.5Zm86.8-41.7-.3-.7c.1.3.2.5.3.7Zm-1.9-4.6L186.5 150c-.6-1-1.3-2.1-2-3l67.4-67.4c9.4 9.9 17.1 21.4 22.8 33.9ZM163.3 41.2Zm-46.2 9.1.2-.1c9.6-4 19.7-6.7 30-7.9 4.1-.5 8.2-.9 12.5-1v95.5c-1.1.1-2.2.4-3.3.6L120 49.2l-6.5 2.7 36.5 88.2c-1 .6-2.1 1.3-3 2L79.5 74.5c10.8-10.2 23.6-18.5 37.6-24.2ZM74.6 79.5l67.5 67.5c-.9 1.1-1.7 2.3-2.3 3.6l-88.2-36.5c5.6-12.8 13.5-24.5 23-34.6ZM50 208.7l.8 1.8c-.3-.6-.5-1.2-.8-1.8Zm1.9 4.4 88.2-36.5c.6 1 1.3 2.1 2 3L74.7 247c-9.4-9.9-17.1-21.4-22.8-33.9Zm111.4 72.2Zm88.7-38.2-67.5-67.5c.9-1.1 1.7-2.3 2.3-3.6l88.2 36.5c-5.6 12.8-13.5 24.5-23 34.6Z" style="fill:#391116;fill-rule:nonzero"/><path d="M163.3 0C73.3 0 0 73.3 0 163.3c0 90 73.3 163.3 163.3 163.3 90 0 163.3-73.3 163.3-163.3C326.6 73.3 253.3 0 163.3 0Zm0 319.6C77.1 319.6 7 249.5 7 163.3 7 77.1 77.1 7 163.3 7c86.2 0 156.3 70.1 156.3 156.3 0 86.2-70.1 156.3-156.3 156.3Z" style="fill:#391116;fill-rule:nonzero"/></svg>